<?xml version="1.0" encoding="utf-8"?>
<!-- Generator: Adobe Illustrator 25.4.1, SVG Export Plug-In . SVG Version: 6.00 Build 0)  -->
<svg version="1.1" id="artwork" xmlns="http://www.w3.org/2000/svg" xmlns:xlink="http://www.w3.org/1999/xlink" x="0px" y="0px"
	 viewBox="0 0 512 512" style="enable-background:new 0 0 512 512;" xml:space="preserve">
<style type="text/css">
	.st0{fill:#ff9933;}
	.st1{fill:#ffffff;}
</style>
<path class="st1" d="M496,292c-6.6,0-12,5.4-12,12v168c0,6.6-5.4,12-12,12H40c-6.6,0-12-5.4-12-12V228h180c6.6,0,12-5.4,12-12s-5.4-12-12-12H28
	v-52c0-6.6,5.4-12,12-12h168c6.6,0,12-5.4,12-12c0-6.6-5.4-12-12-12H40c-19.9,0-36,16.1-36,36v320c0,19.9,16.1,36,36,36h432
	c19.9,0,36-16.1,36-36V304C508,297.4,502.6,292,496,292z"/>
<path class="st0" d="M472,4H280c-19.9,0-36,16.1-36,36v192c0,19.9,16.1,36,36,36h14v45c0,6.6,5.4,12,12,12c2.2,0,4.4-0.6,6.3-1.8
	l88.3-55.2H472c19.9,0,36-16.1,36-36V40C508,20.1,491.9,4,472,4z M376,219.9c-6.6,0-12-5.4-12-12s5.4-12,12-12s12,5.4,12,12
	S382.6,219.9,376,219.9z M388,145.7v26.8c0,6.6-5.4,12-12,12s-12-5.4-12-12v-37.2c0-6.6,5.4-12,12-12c13,0,23.6-10.6,23.6-23.6
	c0-12.8-10.3-23.3-23.1-23.6c-0.2,0-0.3,0-0.5,0c-13,0-23.6,10.5-23.6,23.5c0,0,0,0,0,0.1c0,6.6-5.4,12-12,12s-12-5.4-12-12
	c0-26.3,21.3-47.6,47.6-47.6s47.6,21.3,47.6,47.6C423.6,121.3,409,140.2,388,145.7z"/>
<path class="st1" d="M203.3,346.4c19.5-21,18.2-53.8-2.8-73.2s-53.8-18.2-73.2,2.8c-18.4,19.9-18.4,50.6,0,70.4c-24.1,11.6-39.4,35.9-39.4,62.6
	V431c0,6.6,5.4,12,12,12h130.8c6.6,0,12-5.4,12-12v-22.1C242.7,382.2,227.4,357.9,203.3,346.4z M165.3,283.4
	c15.4,0,27.8,12.5,27.8,27.8c0,15.4-12.5,27.8-27.8,27.8c-15.4,0-27.8-12.5-27.8-27.8c0,0,0,0,0,0
	C137.5,295.9,150,283.5,165.3,283.4z M218.7,419H111.9v-10.1c0-25.1,20.4-45.5,45.5-45.5h15.7c25.1,0,45.5,20.4,45.5,45.5V419z"/>
</svg>
